<svg width="120" height="120" viewBox="0 0 120 120" fill="none" xmlns="http://www.w3.org/2000/svg">
<g id="Frame 5785">
<rect width="120" height="120" fill="white"/>
<g id="Group 20740">
<g id="Vector">
<path d="M10 10H20V20H10V10Z" fill="#FFD748"/>
<path d="M10 20H20V30H10V20Z" fill="#FFD748"/>
<path d="M10 60H20V70H10V60Z" fill="#FFD748"/>
<path d="M20 10H30V20H20V10Z" fill="#FFD748"/>
<path d="M20 20H30V30H20V20Z" fill="#FFD748"/>
<path d="M10 30H20V40H10V30Z" fill="#FFD748"/>
<path d="M20 30H30V40H20V30Z" fill="#FFD748"/>
<path d="M30 30H40V40H30V30Z" fill="#FFD748"/>
<path d="M20 60H30V70H20V60Z" fill="#FFD748"/>
<path d="M30 10H40V20H30V10Z" fill="#FFD748"/>
<path d="M30 20H40V30H30V20Z" fill="#FFD748"/>
<path d="M30 60H40V70H30V60Z" fill="#FFD748"/>
<path d="M40 10H50V20H40V10Z" fill="#FFD748"/>
<path d="M40 60H50V70H40V60Z" fill="#FFD748"/>
<path d="M40 70H50V80H40V70Z" fill="#FFD748"/>
<path d="M50 10H60V20H50V10Z" fill="#FFD748"/>
<path d="M50 20H60V30H50V20Z" fill="#FFD748"/>
<path d="M40 20H50V30H40V20Z" fill="#FFD748"/>
<path d="M50 60H60V70H50V60Z" fill="#FFD748"/>
<path d="M50 70H60V80H50V70Z" fill="#FFD748"/>
<path d="M10 90H20V100H10V90Z" fill="#FFD748"/>
<path d="M10 100H20V110H10V100Z" fill="#FFD748"/>
<path d="M60 10H70V20H60V10Z" fill="#FFD748"/>
<path d="M60 20H70V30H60V20Z" fill="#FFD748"/>
<path d="M60 70H70V80H60V70Z" fill="#FFD748"/>
<path d="M20 90H30V100H20V90Z" fill="#FFD748"/>
<path d="M20 100H30V110H20V100Z" fill="#FFD748"/>
<path d="M70 10H80V20H70V10Z" fill="#FFD748"/>
<path d="M70 20H80V30H70V20Z" fill="#FFD748"/>
<path d="M70 70H80V80H70V70Z" fill="#FFD748"/>
<path d="M30 90H40V100H30V90Z" fill="#FFD748"/>
<path d="M30 100H40V110H30V100Z" fill="#FFD748"/>
<path d="M80 10H90V20H80V10Z" fill="#FFD748"/>
<path d="M80 20H90V30H80V20Z" fill="#FFD748"/>
<path d="M80 70H90V80H80V70Z" fill="#FFD748"/>
<path d="M90 10H100V20H90V10Z" fill="#FFD748"/>
<path d="M90 20H100V30H90V20Z" fill="#FFD748"/>
<path d="M90 30H100V40H90V30Z" fill="#FFD748"/>
<path d="M90 40H100V50H90V40Z" fill="#FFD748"/>
<path d="M90 50H100V60H90V50Z" fill="#FFD748"/>
<path d="M90 60H100V70H90V60Z" fill="#FFD748"/>
<path d="M90 70H100V80H90V70Z" fill="#FFD748"/>
<path d="M100 10H110V20H100V10Z" fill="#FFD748"/>
<path d="M100 20H110V30H100V20Z" fill="#FFD748"/>
<path d="M100 30H110V40H100V30Z" fill="#FFD748"/>
<path d="M100 40H110V50H100V40Z" fill="#FFD748"/>
<path d="M100 50H110V60H100V50Z" fill="#FFD748"/>
<path d="M100 60H110V70H100V60Z" fill="#FFD748"/>
<path d="M100 70H110V80H100V70Z" fill="#FFD748"/>
</g>
</g>
<g id="Your Project">
<path d="M63.156 98.9999H64.488V95.5679L67.56 90.4199H66.144L63.84 94.5239H63.816L61.512 90.4199H60.084L63.156 95.5679V98.9999Z" fill="black"/>
<path d="M69.6393 99.1799C71.5473 99.1799 72.6993 97.8479 72.6993 95.9279C72.6993 94.0199 71.5473 92.6879 69.6513 92.6879C67.7313 92.6879 66.5793 94.0319 66.5793 95.9399C66.5793 97.8599 67.7313 99.1799 69.6393 99.1799ZM67.8033 95.9399C67.8033 94.6559 68.3793 93.6719 69.6513 93.6719C70.8993 93.6719 71.4753 94.6559 71.4753 95.9399C71.4753 97.2119 70.8993 98.2079 69.6513 98.2079C68.3793 98.2079 67.8033 97.2119 67.8033 95.9399Z" fill="black"/>
<path d="M75.5721 99.1679C76.6281 99.1679 77.2641 98.6999 77.5881 98.2319H77.6121V98.9999H78.7881V92.8799H77.6121V96.6359C77.6121 97.5599 76.9641 98.1719 75.9561 98.1719C75.0681 98.1719 74.7081 97.6199 74.7081 96.7919V92.8799H73.5321V97.1159C73.5321 98.5199 74.4441 99.1679 75.5721 99.1679Z" fill="black"/>
<path d="M81.1635 95.8319C81.1635 94.6679 81.9315 93.8639 82.9995 93.8639C83.1435 93.8639 83.2515 93.8759 83.3955 93.8999V92.7719C83.2155 92.7479 83.0475 92.7359 82.8315 92.7359C82.0035 92.7359 81.5115 93.2759 81.1875 94.0439H81.1635V92.8799H79.9875V98.9999H81.1635V95.8319Z" fill="black"/>
<path d="M60.852 110H62.172V106.52H64.428C66.048 106.52 67.236 105.776 67.236 103.976C67.236 102.176 66.048 101.42 64.428 101.42H60.852V110ZM62.172 105.38V102.56H64.368C65.364 102.56 65.868 103.004 65.868 103.976C65.868 104.936 65.364 105.38 64.368 105.38H62.172Z" fill="black"/>
<path d="M69.1222 106.832C69.1222 105.668 69.8902 104.864 70.9582 104.864C71.1022 104.864 71.2102 104.876 71.3542 104.9V103.772C71.1742 103.748 71.0062 103.736 70.7902 103.736C69.9622 103.736 69.4702 104.276 69.1462 105.044H69.1222V103.88H67.9462V110H69.1222V106.832Z" fill="black"/>
<path d="M74.4763 110.18C76.3843 110.18 77.5363 108.848 77.5363 106.928C77.5363 105.02 76.3843 103.688 74.4883 103.688C72.5683 103.688 71.4163 105.032 71.4163 106.94C71.4163 108.86 72.5683 110.18 74.4763 110.18ZM72.6403 106.94C72.6403 105.656 73.2163 104.672 74.4883 104.672C75.7363 104.672 76.3123 105.656 76.3123 106.94C76.3123 108.212 75.7363 109.208 74.4883 109.208C73.2163 109.208 72.6403 108.212 72.6403 106.94Z" fill="black"/>
<path d="M78.1292 112.172C78.9932 112.172 79.5932 111.632 79.5932 110.324V103.88H78.4172V110.276C78.4172 110.96 78.2372 111.164 77.8652 111.164C77.6852 111.164 77.5892 111.152 77.3972 111.128V112.1C77.6972 112.148 77.8772 112.172 78.1292 112.172ZM78.3452 102.788H79.6772V101.516H78.3452V102.788Z" fill="black"/>
<path d="M83.5053 110.18C85.1133 110.18 86.0133 109.292 86.3373 108.116H85.1373C85.0293 108.524 84.6093 109.22 83.5293 109.22C82.3173 109.22 81.7173 108.272 81.6933 107.252H86.3973C86.4093 107.156 86.4093 106.976 86.4093 106.808C86.4093 104.912 85.3653 103.688 83.5053 103.688C81.6333 103.688 80.4813 105.008 80.4813 106.928C80.4813 108.8 81.5613 110.18 83.5053 110.18ZM81.6933 106.328C81.7653 105.32 82.4853 104.648 83.4693 104.648C84.5133 104.648 85.1853 105.368 85.1853 106.328H81.6933Z" fill="black"/>
<path d="M89.9706 110.18C91.5426 110.18 92.6346 109.136 92.7186 107.732H91.5066C91.4466 108.428 91.0986 109.196 89.9706 109.196C88.6626 109.196 88.1826 108.092 88.1826 106.94C88.1826 105.788 88.6626 104.672 89.9706 104.672C91.0866 104.672 91.4466 105.464 91.5066 106.1H92.7186C92.5746 104.72 91.5306 103.7 89.9586 103.7C88.1466 103.7 86.9586 105.02 86.9586 106.94C86.9586 108.86 88.1466 110.18 89.9706 110.18Z" fill="black"/>
<path d="M95.5068 110.072C95.7588 110.072 95.9508 110.06 96.2508 110V109.052C96.0468 109.088 95.9508 109.1 95.7468 109.1C95.2428 109.1 95.0628 108.956 95.0628 108.308V104.852H96.2388V103.88H95.0628V101.912H93.8868V103.88H92.9988V104.852H93.8868V108.272C93.8868 109.688 94.4988 110.072 95.5068 110.072Z" fill="black"/>
</g>
</g>
</svg>
